# AST/ASF file generated using VICON BodyLanguage
# -----------------------------------------------
:version 1.10
:name VICON
:units
  mass 1.0
  length 0.45
  angle deg
:documentation
   .ast/.asf automatically generated from VICON data using
   VICON BodyBuilder and BodyLanguage model FoxedUp or BRILLIANT.MOD
:root
   order TX TY TZ RX RY RZ
   axis XYZ
   position 0 0 0  
   orientation 0 -0 0 
:bonedata
  begin
     id 1 
     name lhipjoint
     direction 0.432694 -0.693742 0.575759 
     length 2.19277 
     axis 0 -0 0  XYZ
  end
  begin
     id 2 
     name lfemur
     direction 0.34202 -0.939693 0  
     length 6.69022  
     axis 0 -0 20  XYZ
    dof rx ry rz
    limits (-160.0 20.0)
           (-70.0 70.0)
           (-60.0 70.0)
  end
  begin
     id 3 
     name ltibia
     direction 0.34202 -0.939693 0   
     length 6.50337   
     axis 0 -0 20   XYZ
    dof rx
    limits (-10.0 170.0)
  end
  begin
     id 4 
     name lfoot
     direction 0.158999 -0.435969 0.885805   
     length 2.70564   
     axis -90 -1.13533e-015 20   XYZ
    dof rx rz
    limits (-45.0 90.0)
           (-70.0 20.0)
  end
  begin
     id 5 
     name ltoes
     direction -0.00592919 0.00964381 0.999936   
     length 1.29929   
     axis -90 -1.13533e-015 20   XYZ
    dof rx
    limits (-90.0 20.0)
  end
  begin
     id 6 
     name rhipjoint
     direction -0.414359 -0.700339 0.581234   
     length 2.17212  
     axis 0 -0 0  XYZ 
  end
  begin
     id 7 
     name rfemur
     direction -0.34202 -0.939693 0   
     length 7.17659   
     axis 0 -0 -20   XYZ
    dof rx ry rz
    limits (-160.0 20.0)
           (-70.0 70.0)
           (-70.0 60.0)
  end
  begin
     id 8 
     name rtibia
     direction -0.34202 -0.939693 0   
     length 6.36669   
     axis 0 -0 -20   XYZ
    dof rx
    limits (-10.0 170.0)
 end
 begin
     id 9 
     name rfoot
     direction -0.137064 -0.37658 0.916188   
     length 2.22351  
     axis -90 1.13533e-015 -20   XYZ
    dof rx rz
    limits (-45.0 90.0)
           (-20.0 70.0)
  end
  begin
     id 10 
     name rtoes
     direction -0.000784077 -0.00289101 0.999996   
     length 1.09522   
     axis -90 1.13533e-015 -20   XYZ
    dof rx
    limits (-90.0 20.0)
  end
  begin
     id 11 
     name lowerback
     direction -0.0176242 0.984912 -0.172157   
     length 1.65301   
     axis 0 -0 0   XYZ
    dof rx ry rz
    limits (-20.0 45.0)
           (-30.0 30.0)
           (-30.0 30.0)
  end
  begin
     id 12 
     name upperback
     direction -0.00218128 0.998776 -0.0494072   
     length 1.67776   
     axis 0 -0 0   XYZ
    dof rx ry rz
    limits (-20.0 45.0)
           (-30.0 30.0)
           (-30.0 30.0)
  end
  begin
     id 13 
     name thorax
     direction 0.00544186 0.999658 0.0255711   
     length 1.72293   
     axis 0 -0 0   XYZ
    dof rx ry rz
    limits (-20.0 45.0)
           (-30.0 30.0)
           (-30.0 30.0)
  end
  begin
     id 14 
     name lowerneck
     direction -0.105325 0.983841 0.144785   
     length 2.14226   
     axis 0 -0 0   XYZ
    dof rx ry rz
    limits (-20.0 45.0)
           (-30.0 30.0)
           (-30.0 30.0)
  end
  begin
     id 15 
     name upperneck
     direction 0.0547957 0.988053 -0.144041   
     length 2.17508   
     axis 0 -0 0   XYZ
    dof rx ry rz
    limits (-20.0 45.0)
           (-30.0 30.0)
           (-30.0 30.0)
  end
  begin
     id 16
     name head
     direction 0.0247488 0.997534 -0.0656813  
     length 2.20048  
     axis 0 -0 0   XYZ
    dof rx ry rz
    limits (-20.0 45.0)
           (-30.0 30.0)
           (-30.0 30.0)
  end
  begin
     id 17 
     name lclavicle
     direction 0.820559 0.567247 -0.0701026  
     length 4.09615  
     axis 0 -0 0   XYZ
    dof ry rz
    limits (-20.0 10.0)
           (0.0 20.0)
  end
  begin
     id 18 
     name lhumerus
     direction 0.999977 -0.0067566 -9.96392e-005   
     length 4.59333   
     axis -180 -30 -90   XYZ
    dof rx ry rz
    limits (-60.0 90.0)
           (-90.0 90.0)
           (-90.0 90.0)
  end
  begin
     id 19
     name lradius
     direction 1 -4.48982e-011 -2.53425e-027   
     length 2.81151   
     axis -180 -30 -90   XYZ
    dof rx
    limits (-10.0 170.0)
  end
  begin
     id 20
     name lwrist
     direction 1 -4.48939e-011 -7.39254e-028   
     length 1.40576   
     axis 2.56395e-016 90 90   XYZ
    dof ry
    limits (-180.0 0.0)
 end
  begin
     id 21 
     name lhand
     direction 1 -4.48939e-011 -1.47851e-027   
     length 0.895651   
     axis 9.43423e-016 90 90   XYZ
    dof rx rz
    limits (-90.0 90.0)
           (-45.0 45.0)
  end
  begin
     id 22 
     name lfingers
     direction 1 -4.48978e-011 -2.95702e-027   
     length 0.722097   
     axis 1.88685e-015 90 90   XYZ
    dof rx
    limits (0.0 90.0)
  end
  begin
     id 23
     name lthumb
     direction 0.707107 -6.34931e-011 0.707107   
     length 1.03679   
     axis -90 45 -9.86935e-015   XYZ
    dof rx rz
    limits (-45.0 45.0)
           (-45.0 45.0)
  end
  begin
     id 24 
     name rclavicle
     direction -0.831414 0.553102 -0.0531864   
     length 4.24872  
     axis 0 -0 0   XYZ 
    dof ry rz
    limits (-10.0 20.0)
           (-20.0 0.0)
  end
  begin
     id 25 
     name rhumerus
     direction -0.999916 -0.000939607 0.0129331  
     length 4.74834   
     axis -180 30 90   XYZ
    dof rx ry rz
    limits (-90.0 60.0)
           (-90.0 90.0)
           (-90.0 90.0)
  end
  begin
     id 26 
     name rradius
     direction -1 -4.48956e-011 -1.31752e-027   
     length 2.79907   
     axis -180 30 90   XYZ
    dof rx
    limits (-10.0 170.0)
  end
  begin
     id 27 
     name rwrist
     direction -1 -4.4897e-011 -7.39254e-028   
     length 1.39954   
     axis 2.56395e-016 -90 -90   XYZ
    dof ry
    limits (-180.0 0.0)
  end
  begin
     id 28
     name rhand
     direction -0.999997 -0.00250697 0.000800838   
     length 0.953304   
     axis 9.43423e-016 -90 -90   XYZ
    dof rx rz
    limits (-90.0 90.0)
           (-45.0 45.0)
  end
  begin
     id 29
     name rfingers
     direction -1 -4.48954e-011 -2.95702e-027   
     length 0.763342   
     axis 1.88685e-015 -90 -90   XYZ
    dof rx
    limits (0.0 90.0)
  end
  begin
     id 30
     name rthumb
     direction -0.709701 -0.00217037 0.7045   
     length 1.10115   
     axis -90 -45 9.86935e-015   XYZ
    dof rx rz
    limits (-45.0 45.0)
           (-45.0 45.0)
  end
:hierarchy
  begin
    root lhipjoint rhipjoint lowerback
    lhipjoint lfemur
    lfemur ltibia
    ltibia lfoot
    lfoot ltoes
    rhipjoint rfemur
    rfemur rtibia
    rtibia rfoot
    rfoot rtoes
    lowerback upperback
    upperback thorax
    thorax lowerneck lclavicle rclavicle
    lowerneck upperneck
    upperneck head
    lclavicle lhumerus
    lhumerus lradius
    lradius lwrist
    lwrist lhand lthumb
    lhand lfingers
    rclavicle rhumerus
    rhumerus rradius
    rradius rwrist
    rwrist rhand rthumb
    rhand rfingers
  end

#!OML:ASF G:\ViconDB\ViconDB\414\test\team2\shane.ASF
:FULLY-SPECIFIED
:DEGREES
34
root 8.51063 15.1441 -22.8217 10.8946 15.8105 -1.39255
lowerback 13.4695 -5.29033 -0.18505
upperback 4.33436 -6.76393 5.04268
thorax -2.28466 -3.38651 6.40902
lowerneck -17.1612 -2.93666 -12.2313
upperneck 15.1913 -2.56351 8.87169
head 7.78365 -1.08514 4.68093
rclavicle 1.01778e-013 -4.65156e-014
rhumerus -57.9236 7.02218 -70.3814
rradius 41.1933
rwrist 30.6863
rhand -39.336 -18.0161
rfingers 7.12502
rthumb -12.3276 -47.6327
lclavicle 1.01778e-013 -4.65156e-014
lhumerus -8.05007 -34.4836 92.4538
lradius 80.816
lwrist -21.6103
lhand -51.2332 6.92696
lfingers 7.12502
lthumb -23.7723 35.4764
rfemur -47.1223 -28.871 27.2904
rtibia 75.6014
rfoot -30.0279 -3.81899
rtoes -15.5925
lfemur 20.1414 9.28382 -4.71114
ltibia 14.2567
lfoot -31.36 -2.13923
ltoes -30.6425
35
root 8.52061 15.1426 -22.5563 11.1896 15.2472 -1.63812
lowerback 13.2442 -5.09918 0.754886
upperback 4.48075 -6.39724 5.13545
thorax -2.14308 -3.20103 5.89941
lowerneck -16.9941 -2.90514 -11.9354
upperneck 14.9753 -2.48138 8.20891
head 7.66258 -1.09169 4.4086
rclavicle 1.33186e-013 -4.73108e-014
rhumerus -56.4534 7.43467 -72.0734
rradius 43.327
rwrist 29.6855
rhand -39.8646 -18.7162
rfingers 7.12502
rthumb -12.8372 -48.3015
lclavicle 1.33186e-013 -4.73108e-014
lhumerus -9.35059 -34.9851 91.7169
lradius 79.6411
lwrist -21.3602
lhand -51.4624 7.46803
lfingers 7.12502
lthumb -23.9921 35.9887
rfemur -46.3488 -29.0758 27.5654
rtibia 75.6991
rfoot -30.7539 -3.47838
rtoes -16.4057
lfemur 19.0958 9.50765 -4.20241
ltibia 17.5707
lfoot -30.614 -2.3584
ltoes -33.3435
36
root 8.52996 15.1445 -22.2839 11.5287 14.4228 -1.79632
lowerback 12.7822 -4.7771 1.40237
upperback 4.76634 -5.92052 5.29433
thorax -1.68726 -2.9685 5.57677
lowerneck -17.0375 -2.9932 -11.98
upperneck 14.8346 -2.49432 7.75397
head 7.62127 -1.14025 4.25591
rclavicle 4.49253e-014 -2.38542e-014
rhumerus -54.6786 8.11391 -73.6842
rradius 45.7449
rwrist 28.5742
rhand -40.4383 -19.2748
rfingers 7.12502
rthumb -13.3903 -48.8244
lclavicle 4.49253e-014 -2.38542e-014
lhumerus -10.3272 -35.2793 91.1265
lradius 78.0487
lwrist -20.7762
lhand -51.1752 7.20419
lfingers 7.12502
lthumb -23.7167 35.7609
rfemur -45.3837 -28.9572 27.5394
rtibia 75.5908
rfoot -31.5615 -2.91711
rtoes -17.0371
lfemur 17.7747 9.69111 -3.94054
ltibia 21.5183
lfoot -29.4233 -2.85144
ltoes -35.6702
37
root 8.53179 15.1549 -22.0062 11.9189 13.6037 -2.039
lowerback 12.682 -4.4599 2.29474
upperback 4.816 -5.40147 5.28752
thorax -1.70876 -2.69875 4.99095
lowerneck -16.9797 -3.02411 -11.6712
upperneck 14.9555 -2.53792 7.2852
head 7.64612 -1.19015 4.0419
rclavicle -5.56597e-015 4.77083e-015
rhumerus -52.9359 8.31735 -75.5096
rradius 48.1553
rwrist 27.7604
rhand -40.6261 -19.956
rfingers 7.12502
rthumb -13.5713 -49.4937
lclavicle -5.56597e-015 4.77083e-015
lhumerus -11.8714 -35.9752 90.5947
lradius 76.3988
lwrist -19.1135
lhand -50.5406 7.00825
lfingers 7.12502
lthumb -23.1079 35.6425
rfemur -44.3097 -28.7621 27.6018
rtibia 75.2692
rfoot -32.3313 -2.30739
rtoes -17.7371
lfemur 16.0044 10.4648 -3.31184
ltibia 26.0078
lfoot -27.4818 -3.95144
ltoes -37.6405
38
root 8.52732 15.1696 -21.7232 12.1684 12.5844 -2.27865
lowerback 12.6125 -3.99447 2.64185
upperback 4.95853 -4.75387 5.51326
thorax -1.57304 -2.37668 4.93551
lowerneck -16.8323 -3.10308 -11.5974
upperneck 15.0264 -2.56626 6.65844
head 7.63954 -1.26197 3.81406
rclavicle -5.88403e-014 4.13472e-014
rhumerus -50.8351 8.73714 -76.9662
rradius 50.4766
rwrist 27.2599
rhand -41.2202 -20.1886
rfingers 7.12502
rthumb -14.1438 -49.6872
lclavicle -5.88403e-014 4.13472e-014
lhumerus -13.439 -36.4056 90.5329
lradius 74.3102
lwrist -17.8451
lhand -50.2158 7.22591
lfingers 7.12502
lthumb -22.7962 35.8989
rfemur -42.9078 -28.4192 27.5276
rtibia 74.7702
rfoot -33.1567 -1.74699
rtoes -18.4135
lfemur 14.1075 11.3562 -2.73367
ltibia 30.9103
lfoot -24.5028 -4.69164
ltoes -36.9228
39
root 8.52556 15.1852 -21.4363 12.4298 11.4158 -2.4766
lowerback 12.5975 -3.45788 3.04368
upperback 5.03786 -4.00633 5.55302
thorax -1.55453 -2.00064 4.64672
lowerneck -16.7168 -3.20108 -11.2876
upperneck 15.3712 -2.71872 6.2264
head 7.73873 -1.36473 3.60362
rclavicle 2.3059e-014 8.74653e-015
rhumerus -48.6849 9.03439 -78.8079
rradius 52.974
rwrist 26.0209
rhand -41.544 -20.541
rfingers 7.12502
rthumb -14.4558 -50.0175
lclavicle 2.3059e-014 8.74653e-015
lhumerus -15.2377 -36.8209 90.5548
lradius 71.6982
lwrist -16.8054
lhand -49.057 6.65987
lfingers 7.12502
lthumb -21.6838 35.4655
rfemur -41.4638 -28.1292 27.3472
rtibia 74.1544
rfoot -33.8767 -1.00009
rtoes -18.9589
lfemur 12.1219 11.9017 -2.45304
ltibia 36.2284
lfoot -20.7548 -5.31761
ltoes -34.3271
40
root 8.51037 15.2091 -21.1468 12.5597 10.2731 -2.52801
lowerback 12.7683 -2.92885 3.13543
upperback 5.20686 -3.29947 5.55096
thorax -1.5151 -1.64869 4.501
lowerneck -16.7429 -3.32589 -11.0155
upperneck 15.7967 -2.89832 5.88186
head 7.8927 -1.47332 3.42593
rclavicle 2.10712e-014 -1.19271e-014
rhumerus -46.1266 9.43708 -80.5604
rradius 55.2269
rwrist 25.799
rhand -42.0974 -20.4357
rfingers 7.12502
rthumb -14.989 -49.8732
lclavicle 2.10712e-014 -1.19271e-014
lhumerus -16.8462 -37.1363 90.5654
lradius 68.6603
lwrist -15.3917
lhand -48.524 6.23966
lfingers 7.12502
lthumb -21.1718 35.1036
rfemur -39.782 -27.8478 27.0582
rtibia 73.3922
rfoot -34.4899 -0.758592
rtoes -19.9827
lfemur 9.84083 12.2053 -2.47442
ltibia 41.6996
lfoot -16.1428 -5.27569
ltoes -31.8538
41
root 8.48904 15.2294 -20.8593 12.7254 9.16025 -2.3984
lowerback 13.1005 -2.34006 3.02526
upperback 5.3198 -2.52578 5.48952
thorax -1.61651 -1.26509 4.40437
lowerneck -17.0095 -3.53194 -10.6384
upperneck 16.4234 -3.18001 5.4782
head 8.1618 -1.62917 3.19831
rclavicle 2.26615e-014 9.54166e-015
rhumerus -43.3374 9.67406 -82.3151
rradius 57.3671
rwrist 25.88
rhand -42.5078 -20.9537
rfingers 7.12502
rthumb -15.3843 -50.3613
lclavicle 2.26615e-014 9.54166e-015
lhumerus -18.3595 -37.4172 90.5894
lradius 64.9076
lwrist -15.0373
lhand -48.0351 6.02403
lfingers 7.12502
lthumb -20.7022 34.9398
rfemur -38.1527 -27.6857 26.5859
rtibia 72.6295
rfoot -35.0171 -0.463656
rtoes -20.5054
lfemur 7.36924 12.5397 -2.59761
ltibia 47.4059
lfoot -12.2283 -6.45097
ltoes -24.6709
42
root 8.46462 15.2665 -20.5609 12.8199 8.0439 -2.4152
lowerback 13.3778 -1.82123 2.93064
upperback 5.46397 -1.84783 5.49727
thorax -1.6477 -0.930557 4.37742
lowerneck -17.113 -3.68347 -10.4031
upperneck 16.8905 -3.38089 5.15487
head 8.34532 -1.74701 3.02836
rclavicle 1.90833e-014 -5.40694e-014
rhumerus -40.3737 10.6173 -84.024
rradius 59.5236
rwrist 25.8751
rhand -43.0891 -20.8515
rfingers 7.12502
rthumb -15.9442 -50.2152
lclavicle 1.90833e-014 -5.40694e-014
lhumerus -20.0524 -37.7236 90.6411
lradius 61.199
lwrist -14.1129
lhand -47.5971 5.87774
lfingers 7.12502
lthumb -20.2812 34.8388
rfemur -36.3129 -27.3484 26.1955
rtibia 71.7466
rfoot -35.508 -0.251326
rtoes -21.0992
lfemur 4.846 12.7131 -2.69266
ltibia 53.1738
lfoot -10.009 -7.83639
ltoes -16.1221
